<svg width="64" height="64" viewBox="0 0 64 64" fill="none" xmlns="http://www.w3.org/2000/svg">
  <rect width="64" height="64" rx="14" fill="#0a84ff"/>
  <path d="M32 14.5c-7.7 0-13.5 5.6-13.5 13.7 0 6.7-1.4 10.3-3.4 12.7-1 1.2-.2 3 1.4 3h31c1.6 0 2.4-1.8 1.4-3-2-2.4-3.4-6-3.4-12.7 0-8.1-5.8-13.7-13.5-13.7Z" fill="#fff"/>
  <path d="M27 47.5a5 5 0 0 0 10 0Z" fill="#fff"/>
  <path d="M32 18.5c2.6 2.9 4.4 5.5 4.4 8 0 2.5-2 4.4-4.4 4.4s-4.4-1.9-4.4-4.4c0-2.5 1.8-5.1 4.4-8Z" fill="#0a84ff"/>
</svg>
